/* XPM */
static char * BulletEnemy_xpm[] = {
"16 16 10 1",
" 	c None",
".	c #F14D4D",
"+	c #F15959",
"@	c #E94949",
"#	c #FE6868",
"$	c #FF5B5B",
"%	c #FF7979",
"&	c #E94141",
"*	c #FD8F8F",
"=	c #D3D3D3",
"     ..+@@@     ",
"   ..####+@@@   ",
"  .$$#%%%%##@@  ",
" ..$#%%%%%%%#+& ",
" .$##%***=*%%#@ ",
"..$#%**===*%%#$&",
".$##***===*%%%$&",
"&$#%**====*%%%$&",
"&$#%***===*%%%$&",
"&$$#***===*%%%$&",
"&.$#******%%%#..",
" &$$%**%%%%%##. ",
" &.$$#%%%%%##.. ",
"  &$$$#####$$.  ",
"   &&..$$$$..   ",
"     &&&&&&     "};
