/* XPM */
static char * Cursor_xpm[] = {
"32 32 2 1",
" 	c None",
".	c #C0C0C0",
"                                ",
"               ..               ",
"               ..               ",
"               ..               ",
"             ......             ",
"          ............          ",
"         ..............         ",
"        ................        ",
"       ......  ..  ......       ",
"      .....    ..    .....      ",
"     .....     ..     .....     ",
"     ....              ....     ",
"     ....              ....     ",
"    ....                ....    ",
"    ....                ....    ",
" ..........          .......... ",
" ..........          .......... ",
"    ....                ....    ",
"    ....                ....    ",
"     ....              ....     ",
"     ....              ....     ",
"     .....     ..     .....     ",
"      .....    ..    .....      ",
"       ......  ..  ......       ",
"        ................        ",
"         ..............         ",
"          ............          ",
"             ......             ",
"               ..               ",
"               ..               ",
"               ..               ",
"                                "};
