/* XPM */
static char * DamagePowerup_xpm[] = {
"32 32 37 1",
" 	c None",
".	c #FFBB7B",
"+	c #9E4D00",
"@	c #9C4C00",
"#	c #A45000",
"$	c #A04E00",
"%	c #A85200",
"&	c #AC5400",
"*	c #AE5500",
"=	c #B05600",
"-	c #B45800",
";	c #B65900",
">	c #BA5B00",
",	c #B85A00",
"'	c #B25700",
")	c #A65100",
"!	c #BC5C00",
"~	c #BE5D00",
"{	c #C46000",
"]	c #C66100",
"^	c #C25F00",
"/	c #CE6500",
"(	c #D06600",
"_	c #D26700",
":	c #D46800",
"<	c #CA6300",
"[	c #CC6400",
"}	c #D86900",
"|	c #DA6A00",
"1	c #DC6B00",
"2	c #A24F00",
"3	c #D66900",
"4	c #DE6C00",
"5	c #E06D00",
"6	c #AA5300",
"7	c #C05E00",
"8	c #C86200",
"            ........            ",
"         ...++++++@@...         ",
"       ..#########$++@@..       ",
"      .#%&*****&&%###+@@@.      ",
"     .#%=-;>>>>,,'=&)#++@@.     ",
"    .#)=,!~{{]]]{^!;=&##+@@.    ",
"   .$#*-!{]/(_::(/<{!-&##+@@.   ",
"  .+#%=>{[(:}||1||:/]!-*##+@@.  ",
"  .2#*-!](3|||45541}(]!-&#+@@.  ",
" .+#%=!{/3|145555541|_]!'6#+@@. ",
" .+#&-^]_}14555555551|_{!=)2+@. ",
" .$#=,{/3|45555555554|}[^-&#+@. ",
".+#)=!](|1555555555554|_]>=)2@@.",
".+#6'7[:|455555555555413[^'6#+@.",
".+#&;{/}155555555555551|/{,&#+@.",
".+#*,{/|455555555555554|({,*#$@.",
".+#*>{(|455555555555551|_]!=)#+.",
".@#*>{(|455555555555551|_]!=)#+.",
".@2&>{(|445555555555554|({>=)2+.",
".@26-{/|1455555555555513/{,*#+@.",
" .$#=~[}|45555555555541:[7'6#+. ",
" .@#*>{_}4555555555554}({>=)#+. ",
" .@$&-7[:|15554444441|_[!'6#+@. ",
"  .$#*,^[:}||11111|||([^,*#$+.  ",
"  .@#)=,^]/(::3333::(<^,*)#+@.  ",
"   .+##&'>7{]8[[/[[]{!,=)#+@.   ",
"    .+2#)&';,>!!!!!>,=&)#+@.    ",
"     .@+$#)%&*====**&%##+@.     ",
"      .@@++2##########++@.      ",
"       ..@@@+++++++@@+@..       ",
"         ...@@@@@@@@...         ",
"            ........            "};
