/* XPM */
static char * ShipW_xpm[] = {
"48 48 2 1",
" 	c None",
".	c #B3BFC3",
"                                                ",
"                                                ",
"                                                ",
"                                                ",
"                                                ",
"                                          ...   ",
"                                       ......   ",
"                                     ........   ",
"                                 ............   ",
"                              ...............   ",
"                            .................   ",
"                          ...................   ",
"                         ....................   ",
"                       ......................   ",
"                     ........................   ",
"                   ..........................   ",
"                 ............................   ",
"               ..............................   ",
"              ...............................   ",
"            .................................   ",
"           ..................................   ",
"         ....................................   ",
"      .......................................   ",
"   ..........................................   ",
"   ..........................................   ",
"      .......................................   ",
"         ....................................   ",
"           ..................................   ",
"            .................................   ",
"              ...............................   ",
"               ..............................   ",
"                 ............................   ",
"                   ..........................   ",
"                     ........................   ",
"                       ......................   ",
"                         ....................   ",
"                          ...................   ",
"                            .................   ",
"                              ...............   ",
"                                 ............   ",
"                                     ........   ",
"                                       ......   ",
"                                          ...   ",
"                                                ",
"                                                ",
"                                                ",
"                                                ",
"                                                "};
