/* XPM */
static char * shipNW_xpm[] = {
"64 64 2 1",
" 	c None",
".	c #FFFFFF",
"                                                                ",
"                                                                ",
"                                                                ",
"                                                                ",
"                                                                ",
"                                                                ",
"                                                                ",
"                                                                ",
"                                                                ",
"                                                                ",
"                                                                ",
"                                                                ",
"                                                                ",
"                                                                ",
"                                                                ",
"                                                                ",
"                                                                ",
"                                                                ",
"                                                                ",
"                                                                ",
"                                                                ",
"                                                                ",
"                                                                ",
"                        ...                                     ",
"                     .........                                  ",
"                    ..............                              ",
"                    .................                           ",
"                   ....................                         ",
"                   ......................                       ",
"                   .........................                    ",
"                   ...........................                  ",
"                    ...........................                 ",
"                    ............................                ",
"                    ............................                ",
"                     ...........................                ",
"                     ............................               ",
"                     ............................               ",
"                      ..........................                ",
"                      ..........................                ",
"                      .........................                 ",
"                       .......................                  ",
"                       .......................                  ",
"                        .....................                   ",
"                        ....................                    ",
"                         ..................                     ",
"                         .................                      ",
"                          ...............                       ",
"                          ..............                        ",
"                           ............                         ",
"                            ..........                          ",
"                             ........                           ",
"                              .....                             ",
"                                                                ",
"                                                                ",
"                                                                ",
"                                                                ",
"                                                                ",
"                                                                ",
"                                                                ",
"                                                                ",
"                                                                ",
"                                                                ",
"                                                                ",
"                                                                "};
