/* XPM */
static char * shipN_xpm[] = {
"64 64 2 1",
" 	c None",
".	c #FFFFFF",
"                                                                ",
"                                                                ",
"                                                                ",
"                                                                ",
"                                                                ",
"                                                                ",
"                                                                ",
"                                                                ",
"                                                                ",
"                                                                ",
"                                                                ",
"                                                                ",
"                                                                ",
"                                                                ",
"                                                                ",
"                                                                ",
"                                                                ",
"                                                                ",
"                                                                ",
"                           ....                                 ",
"                         ........                               ",
"                        ..........                              ",
"                        ...........                             ",
"                       ............                             ",
"                       .............                            ",
"                      ..............                            ",
"                      ...............                           ",
"                     ................                           ",
"                     .................                          ",
"                    ...................                         ",
"                    ...................                         ",
"                    ...................                         ",
"                   .....................                        ",
"                   .....................                        ",
"                  .......................                       ",
"                  .......................                       ",
"                  .......................                       ",
"                  ........................                      ",
"                 .........................                      ",
"                 .........................                      ",
"                 ..........................                     ",
"                 ..........................                     ",
"                 ..........................                     ",
"                 ..........................                     ",
"                 .........................                      ",
"                 .........................                      ",
"                  .......................                       ",
"                   .....................                        ",
"                     ..    .......                              ",
"                                                                ",
"                                                                ",
"                                                                ",
"                                                                ",
"                                                                ",
"                                                                ",
"                                                                ",
"                                                                ",
"                                                                ",
"                                                                ",
"                                                                ",
"                                                                ",
"                                                                ",
"                                                                ",
"                                                                "};
