/* XPM */
static char * ShipE_xpm[] = {
"64 64 2 1",
" 	c None",
".	c #FFFFFF",
"                                                                ",
"                                                                ",
"                                                                ",
"                                                                ",
"                                                                ",
"                                                                ",
"                                                                ",
"                                                                ",
"                                                                ",
"                                                                ",
"                                                                ",
"                                                                ",
"                                                                ",
"                                                                ",
"                                                                ",
"                                                                ",
"                                                                ",
"                  ........                                      ",
"                 .............                                  ",
"                ................                                ",
"                ...................                             ",
"                .....................                           ",
"               ........................                         ",
"               ..........................                       ",
"                ...........................                     ",
"                ............................                    ",
"                ............................                    ",
"               ..............................                   ",
"               ..............................                   ",
"               ..............................                   ",
"               ..............................                   ",
"               .............................                    ",
"               .............................                    ",
"               ............................                     ",
"                ..........................                      ",
"                ........................                        ",
"                ......................                          ",
"                ....................                            ",
"                ...................                             ",
"                 ................                               ",
"                 .............                                  ",
"                  .........                                     ",
"                    ....                                        ",
"                                                                ",
"                                                                ",
"                                                                ",
"                                                                ",
"                                                                ",
"                                                                ",
"                                                                ",
"                                                                ",
"                                                                ",
"                                                                ",
"                                                                ",
"                                                                ",
"                                                                ",
"                                                                ",
"                                                                ",
"                                                                ",
"                                                                ",
"                                                                ",
"                                                                ",
"                                                                ",
"                                                                "};
