/* XPM */
static char * SpeedPowerup_xpm[] = {
"32 32 244 2",
"  	c None",
". 	c #4EC6F8",
"+ 	c #12247C",
"@ 	c #12237B",
"# 	c #12237A",
"$ 	c #11237A",
"% 	c #112279",
"& 	c #112278",
"* 	c #142783",
"= 	c #142784",
"- 	c #152784",
"; 	c #142682",
"> 	c #142681",
", 	c #142680",
"' 	c #13257E",
") 	c #13247C",
"! 	c #112379",
"~ 	c #112277",
"{ 	c #142683",
"] 	c #162988",
"^ 	c #182B8C",
"/ 	c #182C8E",
"( 	c #192C8F",
"_ 	c #192C90",
": 	c #182B8D",
"< 	c #172A8B",
"[ 	c #12247B",
"} 	c #16298A",
"| 	c #192D91",
"1 	c #1B3096",
"2 	c #1C319A",
"3 	c #1D339E",
"4 	c #1E339F",
"5 	c #1E33A0",
"6 	c #1D329E",
"7 	c #1D319A",
"8 	c #1B2F96",
"9 	c #162886",
"0 	c #132682",
"a 	c #162889",
"b 	c #182D91",
"c 	c #1D319B",
"d 	c #1F34A2",
"e 	c #2036A8",
"f 	c #2239AE",
"g 	c #243AB0",
"h 	c #253BB1",
"i 	c #243BB2",
"j 	c #243BB1",
"k 	c #2339AD",
"l 	c #2137A8",
"m 	c #1A2E93",
"n 	c #152783",
"o 	c #12247E",
"p 	c #152785",
"q 	c #182C8F",
"r 	c #1B2F99",
"s 	c #1F35A3",
"t 	c #2239AC",
"u 	c #253CB4",
"v 	c #283FBB",
"w 	c #2941BE",
"x 	c #2942C1",
"y 	c #2A42C3",
"z 	c #2A43C2",
"A 	c #253DB6",
"B 	c #2238AC",
"C 	c #1C3097",
"D 	c #11237B",
"E 	c #132581",
"F 	c #162989",
"G 	c #1A2E95",
"H 	c #1E33A1",
"I 	c #263DB7",
"J 	c #2841BF",
"K 	c #2A44C5",
"L 	c #2C45CA",
"M 	c #2C46CB",
"N 	c #2E47CD",
"O 	c #2E48CD",
"P 	c #2E46CC",
"Q 	c #2C46C9",
"R 	c #2A44C4",
"S 	c #273FBB",
"T 	c #243CB2",
"U 	c #2036A6",
"V 	c #1C3099",
"W 	c #13247D",
"X 	c #1B309A",
"Y 	c #1F35A7",
"Z 	c #243CB4",
"` 	c #2941BF",
" .	c #2B44C6",
"..	c #2D46CC",
"+.	c #2D47CE",
"@.	c #2D47CF",
"#.	c #2F49D1",
"$.	c #304AD2",
"%.	c #2C45C8",
"&.	c #2941C0",
"*.	c #253CB3",
"=.	c #2036A5",
"-.	c #182B8B",
";.	c #142782",
">.	c #13257F",
",.	c #1A2E94",
"'.	c #1F34A1",
").	c #233AAF",
"!.	c #273FBA",
"~.	c #2B44C4",
"{.	c #2D47CB",
"].	c #2F48CF",
"^.	c #2E48CF",
"/.	c #2942C0",
"(.	c #2035A4",
"_.	c #1A2F95",
":.	c #162A89",
"<.	c #12237C",
"[.	c #172B8C",
"}.	c #1B3098",
"|.	c #2137A7",
"1.	c #2A42C0",
"2.	c #2E48CE",
"3.	c #2F49D0",
"4.	c #2942BF",
"5.	c #1E34A0",
"6.	c #152885",
"7.	c #12247D",
"8.	c #192D90",
"9.	c #2B44C5",
"0.	c #2E47CE",
"a.	c #2B45C7",
"b.	c #273EB9",
"c.	c #2137A9",
"d.	c #1C3098",
"e.	c #162887",
"f.	c #2D46C9",
"g.	c #2F49CF",
"h.	c #2E47CC",
"i.	c #2A42C1",
"j.	c #1F33A0",
"k.	c #132580",
"l.	c #172A8A",
"m.	c #1B2F98",
"n.	c #2136A7",
"o.	c #263EB7",
"p.	c #2A43C4",
"q.	c #263EB9",
"r.	c #1B2F95",
"s.	c #172A89",
"t.	c #2238AB",
"u.	c #2840BC",
"v.	c #2339AC",
"w.	c #1D329C",
"x.	c #233AAE",
"y.	c #2840BE",
"z.	c #2D46CA",
"A.	c #2D47CA",
"B.	c #1E329E",
"C.	c #2E48D0",
"D.	c #243BB3",
"E.	c #1F34A0",
"F.	c #13257D",
"G.	c #11227B",
"H.	c #233AB0",
"I.	c #2C46CA",
"J.	c #1A2D92",
"K.	c #11227A",
"L.	c #122581",
"M.	c #162A8D",
"N.	c #1E339E",
"O.	c #2339AE",
"P.	c #2A41C0",
"Q.	c #122580",
"R.	c #16298C",
"S.	c #1B309B",
"T.	c #2238AD",
"U.	c #2C46C8",
"V.	c #2B44C7",
"W.	c #2740BC",
"X.	c #2239AB",
"Y.	c #11237E",
"Z.	c #142788",
"`.	c #192D96",
" +	c #1F36A7",
".+	c #2E48CC",
"++	c #2A43C3",
"@+	c #263DB6",
"#+	c #11227C",
"$+	c #132585",
"%+	c #182C92",
"&+	c #1E33A3",
"*+	c #243AB3",
"=+	c #2842C1",
"-+	c #2C45CB",
";+	c #2D45CA",
">+	c #2841BD",
",+	c #112480",
"'+	c #172A8C",
")+	c #1B3099",
"!+	c #2037A9",
"~+	c #273EBB",
"{+	c #2B43C6",
"]+	c #2C46CC",
"^+	c #2D46CB",
"/+	c #263DB5",
"(+	c #12237D",
"_+	c #182C90",
":+	c #1D329F",
"<+	c #2237AC",
"[+	c #273EBA",
"}+	c #2A43C5",
"|+	c #2D46CD",
"1+	c #2A41C1",
"2+	c #1D329B",
"3+	c #152887",
"4+	c #1D319D",
"5+	c #2137AA",
"6+	c #273FBC",
"7+	c #2942C2",
"8+	c #2A42C2",
"9+	c #2841BE",
"0+	c #253DB5",
"a+	c #152886",
"b+	c #182B8E",
"c+	c #1B2F97",
"d+	c #253CB1",
"e+	c #253CB5",
"f+	c #273FB9",
"g+	c #273EB8",
"h+	c #142580",
"i+	c #172C8E",
"j+	c #1A2F94",
"k+	c #1D329D",
"l+	c #2035A5",
"m+	c #1F35A4",
"n+	c #162885",
"o+	c #192E93",
"p+	c #192D92",
"q+	c #192C91",
"r+	c #162987",
"s+	c #13247E",
"t+	c #132582",
"u+	c #11237C",
"                        . . . . . . . .                         ",
"                  . . . + + @ @ # $ % & . . .                   ",
"              . . * = - - - ; > , ' ) @ ! & ~ . .               ",
"            . { ] ^ / ( _ _ / : < ] - > ' [ % & ~ .             ",
"          . = } | 1 2 3 4 5 5 6 7 8 | ^ 9 > + $ & ~ .           ",
"        . 0 a b c d e f g h i j k l d 2 m < n ' # & ~ .         ",
"      . o p q r s t u v w x y z w v A B d C : - ' # & ~ .       ",
"    . D E F G H B I J K L M N O P Q R S T U V / - ' ! & ~ .     ",
"    . W - ( X Y Z `  ...+.@.#.$.$.#.O %.&.*.=.V -.;.+ % ~ .     ",
"  . # >.] ,.'.).!.~.{.].#.$.$.$.$.$.#.^.Q /.u (._.:., @ & ~ .   ",
"  . <.;.[.}.|.u 1.%.2.3.$.$.$.$.$.$.$.$.^.Q 4.).5.| 6.W ! ~ .   ",
"  . 7.p 8.6 k !.9.{.3.$.$.$.$.$.$.$.$.$.#.0.a.b.c.d.< , @ & .   ",
". # ' e.,.s *.&.f.g.$.$.$.$.$.$.$.$.$.$.$.3.h.i.j j.8.6.W % ~ . ",
". # k.l.m.n.o.p.N #.$.$.$.$.$.$.$.$.$.$.$.#.2. .q.|.r.s.>.# & . ",
". @ ; ^ 2 t.u.%.].$.$.$.$.$.$.$.$.$.$.$.$.$.g.Q u.v.c : ; [ & . ",
". @ * / w.x.y.z.#.$.$.$.$.$.$.$.$.$.$.$.$.$.3.A.&.g B.( - 7.% . ",
". + * q 4 ).` {.3.$.$.$.$.$.$.$.$.$.$.$.$.$.C.P x D.E.| 6.F.! . ",
". G.- ( 4 H.&.I.3.$.$.$.$.$.$.$.$.$.$.$.$.$.C.M x i d J.9 ' ! . ",
". K.L.M.N.O.` z.3.#.$.$.$.$.$.$.$.$.$.$.$.$.#.M P.g 5 | 6.W ! . ",
". K.Q.R.S.T.u.U.].#.$.$.$.$.$.$.$.$.$.$.$.$.^.V.W.X.w./ n + % . ",
"  . Y.Z.`. +q.a.0.#.$.$.$.$.$.$.$.$.$.$.$.#..+++@+n.8 l.> [ .   ",
"  . #+$+%+&+*+=+-+#.$.$.$.$.$.$.$.$.$.$.$.3.;+>+f 4 | 9 ' # .   ",
"  . K.,+'+)+!+~+{+]+C.$.$.$.#.#.#.#.#.#.g.^+i./+U 8 l.; [ & .   ",
"    . (+p _+:+<+[+}+;+..|+].2.2.2.2.N h.f.1+o.c.2+/ - 7.! .     ",
"    . K.>.3+b 4+5+Z 6+&.7+p. . . . .p.8+9+0+l w._ a+>.$ & .     ",
"      . $ >.p b+c+5 n.).d+e+I o.f+g+@+i k (.c 8.e.h+@ & .       ",
"        . $ W ; e.i+j+2 k+5 s U l+U m+5 c ,.: 6.>.[ % .         ",
"          . % D 7.E n+F [.q | o+m p+q+q < r+;.' @ & .           ",
"            . ~ & $ @ s+k.; * = p p { t+, ' + $ & .             ",
"              . . ~ ~ & $ @ @ u+<.<.D G.K.! & . .               ",
"                  . . . ~ ~ & & & ~ ~ ~ . . .                   ",
"                        . . . . . . . .                         "};
